PathFileType	4	(X/Y/Z)	C:\Users\xlb\Desktop\20210112\20210112\bx_n_10_902.trc
DataRate	CameraRate	NumFrames	NumMarkers	Units	OrigDataRate	OrigDataStartFrame	OrigNumFrames
50.00	50.00	       8	43	mm	50.00	1	       484
Frame#	Time	Top.Head			R.Acromium			L.Acromium			Sternum			R.ASIS			L.ASIS			V.Sacral			R.Thigh.Upper			R.Thigh.Front			R.Thigh.Rear			R.Knee.Lat			R.Knee.Med			R.Shank.Upper			R.Shank.Front			R.Shank.Rear			R.Ankle.Lat			R.Midfoot.Lat			R.Toe.Lat			R.Toe.Tip			R.Toe.Med			R.Ankle.Med			R.Midfoot.Sup			R.Heel			L.Thigh.Upper			L.Thigh.Front			L.Thigh.Rear			L.Knee.Lat			L.Knee.Med			L.Shank.Upper			L.Shank.Front			L.Shank.Rear			L.Ankle.Lat			L.Midfoot.Lat			L.Toe.Lat			L.Toe.Tip			L.Toe.Med			L.Ankle.Med			L.Midfoot.Sup			L.Heel			origin1 front left			origin2 front right			origin 3 back right			origin 4 back leftt			
		X1	Y1	Z1	X2	Y2	Z2	X3	Y3	Z3	X4	Y4	Z4	X5	Y5	Z5	X6	Y6	Z6	X7	Y7	Z7	X8	Y8	Z8	X9	Y9	Z9	X10	Y10	Z10	X11	Y11	Z11	X12	Y12	Z12	X13	Y13	Z13	X14	Y14	Z14	X15	Y15	Z15	X16	Y16	Z16	X17	Y17	Z17	X18	Y18	Z18	X19	Y19	Z19	X20	Y20	Z20	X21	Y21	Z21	X22	Y22	Z22	X23	Y23	Z23	X24	Y24	Z24	X25	Y25	Z25	X26	Y26	Z26	X27	Y27	Z27	X28	Y28	Z28	X29	Y29	Z29	X30	Y30	Z30	X31	Y31	Z31	X32	Y32	Z32	X33	Y33	Z33	X34	Y34	Z34	X35	Y35	Z35	X36	Y36	Z36	X37	Y37	Z37	X38	Y38	Z38	X39	Y39	Z39	X40	Y40	Z40	X41	Y41	Z41	X42	Y42	Z42	X43	Y43	Z43	

1	0.000	-664.88354	125.26733	1845.90820	-673.02051	-64.25604	1534.56042	-692.73822	299.84189	1522.35425	-585.68494	112.60353	1347.50867	-567.85089	-2.11066	1053.36194	-575.42822	248.02103	1063.49451	-772.34833	100.10828	1049.94385	-635.40979	-68.06276	871.12500	-560.70496	-2.12936	801.71252	-659.55627	-57.20420	757.08795	-687.88318	-29.76128	616.92981	-674.67682	80.05878	572.91351	-697.77332	-27.90688	569.27655	-648.08337	23.04693	517.27209	-744.94458	-39.01798	490.25644	-754.63293	-13.59886	208.09509	-648.62549	-66.17875	163.40186	-607.43994	-74.87526	158.41878	-546.38678	-32.04966	163.62512	-594.62921	25.71326	166.07567	-712.09741	75.27489	215.82512	-668.19757	56.92653	156.40872	-788.75916	45.53431	174.23268	-660.36346	289.45209	871.98273	-559.50671	216.65253	812.54974	-671.91156	273.25693	742.38385	-705.20618	253.23828	642.45374	-673.42627	145.82779	575.16284	-709.94312	249.03197	576.00751	-659.15198	207.12642	532.25879	-753.25385	259.06577	503.68704	-765.29590	227.18951	205.38318	-658.66241	297.87289	158.33510	-622.70917	306.80923	158.75635	-553.98407	256.78647	164.34204	-589.66083	218.93251	173.63658	-709.84943	152.63850	216.12706	-673.11310	171.86098	156.79900	-794.33038	178.07724	183.49718	-527.99902	304.12732	146.59570	-517.36743	-72.18822	143.05440	-875.87335	-78.57735	141.34627	-882.54431	296.13910	144.78218	
2	0.020	-664.50317	125.25149	1845.88745	-672.81458	-64.30376	1534.51050	-692.42554	299.85251	1522.32605	-585.51874	112.49757	1347.43542	-567.77881	-2.17947	1053.37537	-575.44189	248.00883	1063.48511	-772.26379	100.07829	1049.92053	-635.24994	-68.13795	871.20984	-560.71552	-2.17909	801.66150	-659.54755	-57.21122	757.09448	-687.86768	-29.72126	616.90625	-674.63342	80.00911	572.92346	-697.77954	-27.84915	569.33734	-648.13312	23.08018	517.26569	-744.89209	-38.95883	490.16357	-754.62061	-13.56866	208.06317	-648.63245	-66.20316	163.36925	-607.44525	-74.87936	158.49721	-546.38226	-32.05588	163.63164	-594.67261	25.74534	166.16609	-711.91205	75.41690	215.91228	-668.26727	56.79602	156.40489	-788.72144	45.54495	174.26692	-660.32501	289.38162	871.91248	-559.55365	216.64995	812.58691	-671.85913	273.33740	742.46899	-705.22754	253.17700	642.45319	-673.50360	145.96509	575.35181	-709.94604	249.02444	576.19470	-659.05536	207.09195	532.31262	-753.12305	259.16125	503.64417	-765.28827	227.19165	205.49864	-658.73706	297.98621	158.37936	-622.69360	306.80301	158.71895	-553.97882	256.74512	164.36208	-589.69867	218.97693	173.57126	-709.89166	152.66760	216.21115	-673.22650	171.70506	157.03233	-794.31659	178.08606	183.45885	-527.97760	304.19870	146.59859	-517.36652	-72.27834	143.01158	-875.91772	-78.62302	141.41899	-882.50073	296.18594	144.77414	
3	0.040	-664.05060	125.20860	1845.84888	-672.59723	-64.33302	1534.45593	-692.08148	299.86731	1522.31128	-585.31897	112.39101	1347.36682	-567.71039	-2.25811	1053.38428	-575.43512	248.01210	1063.46423	-772.19037	100.06287	1049.91907	-635.13342	-68.19732	871.27875	-560.73865	-2.22755	801.58484	-659.52527	-57.22437	757.08527	-687.85889	-29.71319	616.89771	-674.62744	79.97699	572.94379	-697.78387	-27.81886	569.37579	-648.14435	23.07279	517.29083	-744.86633	-38.92914	490.11249	-754.61084	-13.55917	208.04747	-648.62866	-66.21286	163.33530	-607.44446	-74.89478	158.55162	-546.38379	-32.05341	163.64348	-594.69135	25.76098	166.23180	-711.80841	75.49339	215.96835	-668.30298	56.70815	156.40752	-788.69971	45.55311	174.28728	-660.28137	289.26370	871.81738	-559.57837	216.63179	812.58093	-671.78809	273.38846	742.54413	-705.19916	253.13101	642.41980	-673.54779	146.04350	575.45386	-709.94025	249.01404	576.33997	-658.97046	207.04730	532.33459	-753.04315	259.19971	503.62589	-765.26300	227.21770	205.55470	-658.77893	298.05972	158.40097	-622.67627	306.79468	158.68698	-553.96124	256.71872	164.39119	-589.73212	219.01192	173.52878	-709.91846	152.68469	216.26004	-673.28204	171.61678	157.16142	-794.29816	178.09406	183.42622	-527.97125	304.23627	146.59326	-517.36383	-72.34283	142.99091	-875.95483	-78.66960	141.47247	-882.46954	296.20132	144.76306	
4	0.060	-663.49036	125.15186	1845.78540	-672.33832	-64.34272	1534.39990	-691.70850	299.86905	1522.33801	-585.08679	112.29520	1347.30176	-567.64618	-2.33665	1053.38684	-575.39630	248.01938	1063.42004	-772.12030	100.05623	1049.93750	-635.06989	-68.23412	871.32385	-560.74982	-2.27536	801.49359	-659.48511	-57.24457	757.04974	-687.83911	-29.73958	616.89746	-674.64105	79.96215	572.96320	-697.78101	-27.82545	569.39117	-648.11237	23.02532	517.33044	-744.85913	-38.93361	490.10425	-754.61432	-13.57350	208.04295	-648.62073	-66.20060	163.31071	-607.44446	-74.90552	158.55669	-546.38794	-32.04283	163.65820	-594.68951	25.75372	166.26904	-711.78534	75.51036	215.98674	-668.29749	56.67037	156.42113	-788.70081	45.55784	174.28886	-660.23126	289.10324	871.70313	-559.56207	216.58406	812.51984	-671.71277	273.40900	742.58423	-705.11365	253.11337	642.37146	-673.54944	146.05830	575.45764	-709.92462	248.99686	576.40485	-658.89569	206.99265	532.32935	-753.03143	259.19226	503.63776	-765.22119	227.24939	205.53514	-658.78119	298.08429	158.39998	-622.66071	306.78333	158.67065	-553.92755	256.71286	164.42195	-589.75781	219.01463	173.50484	-709.92395	152.68457	216.25786	-673.28595	171.60632	157.17621	-794.28412	178.10629	183.41537	-527.98633	304.24814	146.57393	-517.35486	-72.36433	142.98990	-875.97559	-78.70765	141.48859	-882.45636	296.18018	144.74635	
5	0.080	-662.83600	125.11962	1845.71057	-672.00598	-64.35059	1534.34692	-691.33893	299.83493	1522.41711	-584.84137	112.22688	1347.23938	-567.58008	-2.39474	1053.37793	-575.31616	248.01414	1063.36011	-772.03259	100.04562	1049.96313	-635.04260	-68.25629	871.34491	-560.71722	-2.31253	801.42340	-659.42938	-57.26663	756.99817	-687.78851	-29.78319	616.89423	-674.62817	79.95693	572.95581	-697.76202	-27.86178	569.39948	-648.05115	22.96749	517.34827	-744.84796	-38.95463	490.10892	-754.63239	-13.59279	208.02965	-648.62604	-66.17666	163.31276	-607.45648	-74.89749	158.51350	-546.38721	-32.03174	163.67047	-594.68329	25.73400	166.27953	-711.80670	75.49008	215.96718	-668.27173	56.66862	156.44188	-788.72144	45.55753	174.27597	-660.16626	288.93872	871.58997	-559.49921	216.50404	812.42303	-671.65100	273.41730	742.57501	-704.99774	253.13687	642.34448	-673.52936	146.03816	575.40381	-709.90295	248.97594	576.38190	-658.83514	206.94344	532.32141	-753.05640	259.17880	503.65897	-765.18860	227.25113	205.47388	-658.75916	298.07959	158.38904	-622.65387	306.77161	158.67714	-553.89093	256.71622	164.44035	-589.77081	218.97585	173.48863	-709.91309	152.67523	216.21892	-673.28424	171.63670	157.14874	-794.28357	178.12305	183.43303	-528.01190	304.25729	146.54201	-517.33960	-72.35425	142.99663	-875.98065	-78.72501	141.47601	-882.45306	296.14334	144.73077	
6	0.100	-662.12640	125.12919	1845.65198	-671.58911	-64.38606	1534.29480	-690.99182	299.76822	1522.52087	-584.58820	112.19438	1347.18567	-567.50543	-2.42368	1053.35132	-575.18304	247.99484	1063.31494	-771.91174	100.03026	1049.99365	-635.03052	-68.28426	871.34894	-560.63696	-2.32488	801.39520	-659.35803	-57.27966	756.95935	-687.71222	-29.82826	616.90063	-674.56342	79.94825	572.91187	-697.72205	-27.91562	569.40924	-647.97809	22.92533	517.33771	-744.82404	-38.96770	490.10449	-754.64813	-13.59862	208.00075	-648.64655	-66.16340	163.34375	-607.47552	-74.87524	158.45158	-546.37793	-32.03174	163.67126	-594.66998	25.72531	166.26280	-711.86432	75.41208	215.89580	-668.25244	56.68505	156.45929	-788.74963	45.54797	174.25858	-660.07037	288.80939	871.49725	-559.40015	216.40250	812.31982	-671.60034	273.42377	742.53198	-704.88190	253.19269	642.34943	-673.50366	145.99644	575.32892	-709.87823	248.96021	576.30133	-658.79297	206.90640	532.32446	-753.06854	259.17276	503.66351	-765.19928	227.21922	205.42726	-658.73212	298.06577	158.37369	-622.65973	306.76657	158.70360	-553.87451	256.71637	164.44778	-589.76752	218.91501	173.48131	-709.89777	152.67221	216.17134	-673.28046	171.66496	157.14291	-794.29053	178.13647	183.46513	-528.02625	304.27664	146.51768	-517.32538	-72.34618	143.00923	-875.98010	-78.72308	141.46649	-882.44574	296.11932	144.72806	
7	0.120	-661.38062	125.15314	1845.62512	-671.11072	-64.46707	1534.23840	-690.64429	299.69138	1522.61182	-584.31720	112.18828	1347.14624	-567.42792	-2.43647	1053.31177	-575.00220	247.96152	1063.30566	-771.77075	100.02048	1050.03748	-635.01556	-68.33601	871.35077	-560.52832	-2.31721	801.39856	-659.27142	-57.27590	756.95355	-687.63300	-29.86743	616.93506	-674.46320	79.92065	572.85541	-697.66962	-27.97312	569.40790	-647.90973	22.89663	517.33063	-744.79095	-38.96508	490.09979	-754.64764	-13.59189	207.97523	-648.66492	-66.17033	163.38063	-607.48627	-74.84969	158.39906	-546.36407	-32.05093	163.64926	-594.63196	25.73763	166.23236	-711.93878	75.27453	215.77336	-668.25439	56.69949	156.46292	-788.77020	45.52829	174.24612	-659.93658	288.74426	871.44788	-559.28473	216.29198	812.22784	-671.55347	273.41257	742.47675	-704.77832	253.23541	642.37085	-673.45215	145.92886	575.26886	-709.84906	248.95503	576.21356	-658.75745	206.86966	532.33337	-753.04822	259.16724	503.64529	-765.25421	227.18250	205.42966	-658.71552	298.04803	158.35269	-622.66949	306.77301	158.74162	-553.88293	256.71796	164.45308	-589.75342	218.86165	173.48259	-709.88904	152.68175	216.13565	-673.22614	171.66377	157.15930	-794.29132	178.14233	183.48906	-528.01752	304.30795	146.52913	-517.31964	-72.35085	143.02121	-875.97742	-78.71877	141.46855	-882.43604	296.12180	144.73401	
8	0.140	-660.57904	125.14681	1845.62073	-670.62830	-64.57547	1534.17871	-690.25177	299.61972	1522.67236	-584.02966	112.18352	1347.11621	-567.36456	-2.45439	1053.27283	-574.81903	247.90221	1063.32141	-771.64764	100.02447	1050.09473	-634.99200	-68.40335	871.35767	-560.42053	-2.31779	801.40674	-659.17474	-57.25832	756.97388	-687.56958	-29.89729	616.98242	-674.37585	79.87318	572.83240	-697.61804	-28.02430	569.38013	-647.84894	22.85778	517.35602	-744.75427	-38.95869	490.11243	-754.63770	-13.58696	207.97391	-648.66431	-66.18100	163.39432	-607.48596	-74.83042	158.36792	-546.35577	-32.07760	163.60994	-594.56799	25.75340	166.21219	-711.97736	75.14979	215.64801	-668.27386	56.70162	156.44943	-788.77557	45.50912	174.24368	-659.77783	288.72876	871.44135	-559.17651	216.18347	812.15131	-671.50861	273.34900	742.41321	-704.67767	253.21265	642.38409	-673.36078	145.84081	575.26007	-709.81281	248.95897	576.17059	-658.72064	206.83185	532.32953	-753.01385	259.15787	503.62479	-765.31055	227.15828	205.46768	-658.71448	298.02646	158.32848	-622.66461	306.78796	158.78261	-553.90015	256.72873	164.44981	-589.74158	218.83591	173.48370	-709.89038	152.69295	216.12369	-673.10858	171.61320	157.17349	-794.28442	178.14268	183.49203	-527.99756	304.32666	146.57135	-517.32166	-72.34236	143.01277	-875.96802	-78.72452	141.45844	-882.43860	296.13983	144.73227	
